<svg xmlns="http://www.w3.org/2000/svg" viewBox="0 0 64 64" role="img" aria-label="Flowra icon">
  <defs>
    <linearGradient id="bg" x1="8" y1="8" x2="56" y2="56" gradientUnits="userSpaceOnUse">
      <stop offset="0" stop-color="#0b1220"/>
      <stop offset="1" stop-color="#111827"/>
    </linearGradient>
    <linearGradient id="petalA" x1="18" y1="18" x2="44" y2="44" gradientUnits="userSpaceOnUse">
      <stop offset="0" stop-color="#34d399"/>
      <stop offset="1" stop-color="#10b981"/>
    </linearGradient>
    <linearGradient id="petalB" x1="20" y1="20" x2="42" y2="42" gradientUnits="userSpaceOnUse">
      <stop offset="0" stop-color="#60a5fa"/>
      <stop offset="1" stop-color="#3b82f6"/>
    </linearGradient>
  </defs>

  <rect x="4" y="4" width="56" height="56" rx="16" fill="url(#bg)"/>

  <path d="M32 14c5.6 0 10 4.4 10 10 0 6.1-4.4 9.9-10 15-5.6-5.1-10-8.9-10-15 0-5.6 4.4-10 10-10z" fill="url(#petalA)"/>
  <path d="M50 32c0 5.6-4.4 10-10 10-6.1 0-9.9-4.4-15-10 5.1-5.6 8.9-10 15-10 5.6 0 10 4.4 10 10z" fill="url(#petalB)"/>
  <path d="M32 50c-5.6 0-10-4.4-10-10 0-6.1 4.4-9.9 10-15 5.6 5.1 10 8.9 10 15 0 5.6-4.4 10-10 10z" fill="url(#petalA)"/>
  <path d="M14 32c0-5.6 4.4-10 10-10 6.1 0 9.9 4.4 15 10-5.1 5.6-8.9 10-15 10-5.6 0-10-4.4-10-10z" fill="url(#petalB)"/>

  <circle cx="32" cy="32" r="7" fill="#f8fafc"/>
  <circle cx="32" cy="32" r="3" fill="#0f172a"/>
</svg>
